<mxfile host="app.diagrams.net" agent="Mozilla/5.0 (Windows NT 10.0; Win64; x64) AppleWebKit/537.36 (KHTML, like Gecko) Chrome/141.0.0.0 Safari/537.36 Edg/141.0.0.0" version="28.2.8">
  <diagram name="Page-1" id="PHOjIm39Yz1ImN7IBOP4">
    <mxGraphModel dx="750" dy="844" grid="1" gridSize="10" guides="1" tooltips="1" connect="1" arrows="1" fold="1" page="1" pageScale="1" pageWidth="850" pageHeight="1100" math="0" shadow="0">
      <root>
        <mxCell id="0" />
        <mxCell id="1" parent="0" />
        <mxCell id="ruvkpopMp-esO1WmiboQ-14" value="&lt;span style=&quot;font-weight: normal;&quot;&gt;Training&lt;br&gt;&lt;/span&gt;" style="shape=table;startSize=30;container=1;collapsible=1;childLayout=tableLayout;fixedRows=1;rowLines=0;fontStyle=1;align=center;resizeLast=1;html=1;rounded=0;fillColor=#f0a30a;fontColor=#000000;strokeColor=#000000;comic=0;fillOpacity=100;snapToPoint=1;" vertex="1" parent="1">
          <mxGeometry x="150" y="280" width="280" height="150" as="geometry" />
        </mxCell>
        <mxCell id="ruvkpopMp-esO1WmiboQ-15" value="" style="shape=tableRow;horizontal=0;startSize=0;swimlaneHead=0;swimlaneBody=0;fillColor=#FFFFFF;collapsible=0;dropTarget=0;points=[[0,0.5,0,0,0],[1,0.5,0,0,0]];portConstraint=eastwest;top=0;left=0;right=0;bottom=0;rounded=1;fillOpacity=100;snapToPoint=1;" vertex="1" parent="ruvkpopMp-esO1WmiboQ-14">
          <mxGeometry y="30" width="280" height="20" as="geometry" />
        </mxCell>
        <mxCell id="ruvkpopMp-esO1WmiboQ-16" value="PK" style="shape=partialRectangle;connectable=0;fillColor=none;top=0;left=1;bottom=0;right=1;editable=1;overflow=hidden;whiteSpace=wrap;html=1;rounded=1;strokeColor=#000000;fillOpacity=100;snapToPoint=1;" vertex="1" parent="ruvkpopMp-esO1WmiboQ-15">
          <mxGeometry width="30" height="20" as="geometry">
            <mxRectangle width="30" height="20" as="alternateBounds" />
          </mxGeometry>
        </mxCell>
        <mxCell id="ruvkpopMp-esO1WmiboQ-17" value="training_id" style="shape=partialRectangle;connectable=0;fillColor=none;top=0;left=1;bottom=0;right=1;align=left;spacingLeft=6;overflow=hidden;whiteSpace=wrap;html=1;rounded=1;strokeColor=#000000;fillOpacity=100;snapToPoint=1;" vertex="1" parent="ruvkpopMp-esO1WmiboQ-15">
          <mxGeometry x="30" width="160" height="20" as="geometry">
            <mxRectangle width="160" height="20" as="alternateBounds" />
          </mxGeometry>
        </mxCell>
        <mxCell id="ruvkpopMp-esO1WmiboQ-18" value="Varchar(100)" style="shape=partialRectangle;connectable=0;fillColor=none;top=0;left=1;bottom=0;right=1;align=left;spacingLeft=6;overflow=hidden;whiteSpace=wrap;html=1;rounded=1;strokeColor=#000000;fillOpacity=100;snapToPoint=1;" vertex="1" parent="ruvkpopMp-esO1WmiboQ-15">
          <mxGeometry x="190" width="90" height="20" as="geometry">
            <mxRectangle width="90" height="20" as="alternateBounds" />
          </mxGeometry>
        </mxCell>
        <mxCell id="ruvkpopMp-esO1WmiboQ-19" style="shape=tableRow;horizontal=0;startSize=0;swimlaneHead=0;swimlaneBody=0;fillColor=#E8E8E8;collapsible=0;dropTarget=0;points=[[0,0.5],[1,0.5]];portConstraint=eastwest;top=0;left=0;right=0;bottom=0;rounded=1;fillStyle=auto;fillOpacity=100;snapToPoint=1;" vertex="1" parent="ruvkpopMp-esO1WmiboQ-14">
          <mxGeometry y="50" width="280" height="20" as="geometry" />
        </mxCell>
        <mxCell id="ruvkpopMp-esO1WmiboQ-20" value="" style="shape=partialRectangle;connectable=0;fillColor=#E8E8E8;top=0;left=1;bottom=0;right=1;editable=1;overflow=hidden;whiteSpace=wrap;html=1;labelBackgroundColor=none;strokeColor=#000000;fillOpacity=100;rounded=1;snapToPoint=1;" vertex="1" parent="ruvkpopMp-esO1WmiboQ-19">
          <mxGeometry width="30" height="20" as="geometry">
            <mxRectangle width="30" height="20" as="alternateBounds" />
          </mxGeometry>
        </mxCell>
        <mxCell id="ruvkpopMp-esO1WmiboQ-21" value="training_title" style="shape=partialRectangle;connectable=0;fillColor=#E8E8E8;top=0;left=1;bottom=0;right=1;align=left;spacingLeft=6;overflow=hidden;whiteSpace=wrap;html=1;labelBackgroundColor=none;strokeColor=#000000;fillOpacity=100;rounded=1;snapToPoint=1;" vertex="1" parent="ruvkpopMp-esO1WmiboQ-19">
          <mxGeometry x="30" width="160" height="20" as="geometry">
            <mxRectangle width="160" height="20" as="alternateBounds" />
          </mxGeometry>
        </mxCell>
        <mxCell id="ruvkpopMp-esO1WmiboQ-22" value="Varchar(150)" style="shape=partialRectangle;connectable=0;fillColor=#E8E8E8;top=0;left=1;bottom=0;right=1;align=left;spacingLeft=6;overflow=hidden;whiteSpace=wrap;html=1;labelBackgroundColor=none;strokeColor=#000000;fillOpacity=100;rounded=1;snapToPoint=1;" vertex="1" parent="ruvkpopMp-esO1WmiboQ-19">
          <mxGeometry x="190" width="90" height="20" as="geometry">
            <mxRectangle width="90" height="20" as="alternateBounds" />
          </mxGeometry>
        </mxCell>
        <mxCell id="ruvkpopMp-esO1WmiboQ-23" style="shape=tableRow;horizontal=0;startSize=0;swimlaneHead=0;swimlaneBody=0;fillColor=#E8E8E8;collapsible=0;dropTarget=0;points=[[0,0.5],[1,0.5]];portConstraint=eastwest;top=0;left=0;right=0;bottom=0;rounded=1;fillStyle=auto;fillOpacity=100;snapToPoint=1;" vertex="1" parent="ruvkpopMp-esO1WmiboQ-14">
          <mxGeometry y="70" width="280" height="20" as="geometry" />
        </mxCell>
        <mxCell id="ruvkpopMp-esO1WmiboQ-24" value="" style="shape=partialRectangle;connectable=0;fillColor=#FFFFFF;top=0;left=1;bottom=0;right=1;editable=1;overflow=hidden;whiteSpace=wrap;html=1;labelBackgroundColor=none;strokeColor=#000000;fillOpacity=100;rounded=1;snapToPoint=1;" vertex="1" parent="ruvkpopMp-esO1WmiboQ-23">
          <mxGeometry width="30" height="20" as="geometry">
            <mxRectangle width="30" height="20" as="alternateBounds" />
          </mxGeometry>
        </mxCell>
        <mxCell id="ruvkpopMp-esO1WmiboQ-25" value="description" style="shape=partialRectangle;connectable=0;fillColor=#FFFFFF;top=0;left=1;bottom=0;right=1;align=left;spacingLeft=6;overflow=hidden;whiteSpace=wrap;html=1;labelBackgroundColor=none;strokeColor=#000000;fillOpacity=100;rounded=1;snapToPoint=1;" vertex="1" parent="ruvkpopMp-esO1WmiboQ-23">
          <mxGeometry x="30" width="160" height="20" as="geometry">
            <mxRectangle width="160" height="20" as="alternateBounds" />
          </mxGeometry>
        </mxCell>
        <mxCell id="ruvkpopMp-esO1WmiboQ-26" value="Varchar(255)" style="shape=partialRectangle;connectable=0;fillColor=#FFFFFF;top=0;left=1;bottom=0;right=1;align=left;spacingLeft=6;overflow=hidden;whiteSpace=wrap;html=1;labelBackgroundColor=none;strokeColor=#000000;fillOpacity=100;rounded=1;snapToPoint=1;" vertex="1" parent="ruvkpopMp-esO1WmiboQ-23">
          <mxGeometry x="190" width="90" height="20" as="geometry">
            <mxRectangle width="90" height="20" as="alternateBounds" />
          </mxGeometry>
        </mxCell>
        <mxCell id="ruvkpopMp-esO1WmiboQ-27" style="shape=tableRow;horizontal=0;startSize=0;swimlaneHead=0;swimlaneBody=0;fillColor=#E8E8E8;collapsible=0;dropTarget=0;points=[[0,0.5],[1,0.5]];portConstraint=eastwest;top=0;left=0;right=0;bottom=0;rounded=1;fillStyle=auto;fillOpacity=100;snapToPoint=1;" vertex="1" parent="ruvkpopMp-esO1WmiboQ-14">
          <mxGeometry y="90" width="280" height="20" as="geometry" />
        </mxCell>
        <mxCell id="ruvkpopMp-esO1WmiboQ-28" value="" style="shape=partialRectangle;connectable=0;fillColor=#E8E8E8;top=0;left=1;bottom=0;right=1;editable=1;overflow=hidden;whiteSpace=wrap;html=1;labelBackgroundColor=none;strokeColor=#000000;fillOpacity=100;rounded=1;snapToPoint=1;" vertex="1" parent="ruvkpopMp-esO1WmiboQ-27">
          <mxGeometry width="30" height="20" as="geometry">
            <mxRectangle width="30" height="20" as="alternateBounds" />
          </mxGeometry>
        </mxCell>
        <mxCell id="ruvkpopMp-esO1WmiboQ-29" value="due_date" style="shape=partialRectangle;connectable=0;fillColor=#E8E8E8;top=0;left=1;bottom=0;right=1;align=left;spacingLeft=6;overflow=hidden;whiteSpace=wrap;html=1;labelBackgroundColor=none;strokeColor=#000000;fillOpacity=100;rounded=1;snapToPoint=1;" vertex="1" parent="ruvkpopMp-esO1WmiboQ-27">
          <mxGeometry x="30" width="160" height="20" as="geometry">
            <mxRectangle width="160" height="20" as="alternateBounds" />
          </mxGeometry>
        </mxCell>
        <mxCell id="ruvkpopMp-esO1WmiboQ-30" value="DATE" style="shape=partialRectangle;connectable=0;fillColor=#E8E8E8;top=0;left=1;bottom=0;right=1;align=left;spacingLeft=6;overflow=hidden;whiteSpace=wrap;html=1;labelBackgroundColor=none;strokeColor=#000000;fillOpacity=100;rounded=1;snapToPoint=1;" vertex="1" parent="ruvkpopMp-esO1WmiboQ-27">
          <mxGeometry x="190" width="90" height="20" as="geometry">
            <mxRectangle width="90" height="20" as="alternateBounds" />
          </mxGeometry>
        </mxCell>
        <mxCell id="ruvkpopMp-esO1WmiboQ-31" style="shape=tableRow;horizontal=0;startSize=0;swimlaneHead=0;swimlaneBody=0;fillColor=none;collapsible=0;dropTarget=0;points=[[0,0.5],[1,0.5]];portConstraint=eastwest;top=0;left=0;right=0;bottom=0;rounded=1;fillOpacity=100;snapToPoint=1;" vertex="1" parent="ruvkpopMp-esO1WmiboQ-14">
          <mxGeometry y="110" width="280" height="20" as="geometry" />
        </mxCell>
        <mxCell id="ruvkpopMp-esO1WmiboQ-32" value="" style="shape=partialRectangle;connectable=0;fillColor=#FFFFFF;top=0;left=1;bottom=0;right=1;editable=1;overflow=hidden;whiteSpace=wrap;html=1;labelBackgroundColor=none;rounded=1;strokeColor=#000000;fillOpacity=100;snapToPoint=1;" vertex="1" parent="ruvkpopMp-esO1WmiboQ-31">
          <mxGeometry width="30" height="20" as="geometry">
            <mxRectangle width="30" height="20" as="alternateBounds" />
          </mxGeometry>
        </mxCell>
        <mxCell id="ruvkpopMp-esO1WmiboQ-33" value="training_link" style="shape=partialRectangle;connectable=0;fillColor=#FFFFFF;top=0;left=1;bottom=0;right=1;align=left;spacingLeft=6;overflow=hidden;whiteSpace=wrap;html=1;labelBackgroundColor=none;rounded=1;strokeColor=#000000;fillOpacity=100;snapToPoint=1;" vertex="1" parent="ruvkpopMp-esO1WmiboQ-31">
          <mxGeometry x="30" width="160" height="20" as="geometry">
            <mxRectangle width="160" height="20" as="alternateBounds" />
          </mxGeometry>
        </mxCell>
        <mxCell id="ruvkpopMp-esO1WmiboQ-34" value="Varchar(255)" style="shape=partialRectangle;connectable=0;fillColor=#FFFFFF;top=0;left=1;bottom=0;right=1;align=left;spacingLeft=6;overflow=hidden;whiteSpace=wrap;html=1;labelBackgroundColor=none;rounded=1;strokeColor=#000000;fillOpacity=100;snapToPoint=1;" vertex="1" parent="ruvkpopMp-esO1WmiboQ-31">
          <mxGeometry x="190" width="90" height="20" as="geometry">
            <mxRectangle width="90" height="20" as="alternateBounds" />
          </mxGeometry>
        </mxCell>
        <mxCell id="ruvkpopMp-esO1WmiboQ-35" style="shape=tableRow;horizontal=0;startSize=0;swimlaneHead=0;swimlaneBody=0;fillColor=none;collapsible=0;dropTarget=0;points=[[0,0.5],[1,0.5]];portConstraint=eastwest;top=0;left=0;right=0;bottom=0;rounded=1;fillOpacity=100;snapToPoint=1;" vertex="1" parent="ruvkpopMp-esO1WmiboQ-14">
          <mxGeometry y="130" width="280" height="20" as="geometry" />
        </mxCell>
        <mxCell id="ruvkpopMp-esO1WmiboQ-36" value="" style="shape=partialRectangle;connectable=0;fillColor=#E8E8E8;top=0;left=1;bottom=0;right=1;editable=1;overflow=hidden;whiteSpace=wrap;html=1;fillOpacity=100;perimeter=rectanglePerimeter;snapToPoint=1;fixDash=0;part=0;metaEdit=0;backgroundOutline=0;strokeOpacity=100;noLabel=0;labelPadding=0;labelBackgroundColor=none;rounded=1;fillStyle=auto;strokeColor=#000000;" vertex="1" parent="ruvkpopMp-esO1WmiboQ-35">
          <mxGeometry width="30" height="20" as="geometry">
            <mxRectangle width="30" height="20" as="alternateBounds" />
          </mxGeometry>
        </mxCell>
        <mxCell id="ruvkpopMp-esO1WmiboQ-37" value="date_created" style="shape=partialRectangle;connectable=0;fillColor=#E8E8E8;top=0;left=1;bottom=0;right=1;align=left;spacingLeft=6;overflow=hidden;whiteSpace=wrap;html=1;fillOpacity=100;perimeter=rectanglePerimeter;snapToPoint=1;fixDash=0;part=0;metaEdit=0;backgroundOutline=0;strokeOpacity=100;noLabel=0;labelPadding=0;labelBackgroundColor=none;rounded=1;fillStyle=auto;strokeColor=#000000;" vertex="1" parent="ruvkpopMp-esO1WmiboQ-35">
          <mxGeometry x="30" width="160" height="20" as="geometry">
            <mxRectangle width="160" height="20" as="alternateBounds" />
          </mxGeometry>
        </mxCell>
        <mxCell id="ruvkpopMp-esO1WmiboQ-38" value="Varchar(100)" style="shape=partialRectangle;connectable=0;fillColor=#E8E8E8;top=0;left=1;bottom=0;right=1;align=left;spacingLeft=6;overflow=hidden;whiteSpace=wrap;html=1;fillOpacity=100;perimeter=rectanglePerimeter;snapToPoint=1;fixDash=0;part=0;metaEdit=0;backgroundOutline=0;strokeOpacity=100;noLabel=0;labelPadding=0;labelBackgroundColor=none;rounded=1;fillStyle=auto;strokeColor=#000000;" vertex="1" parent="ruvkpopMp-esO1WmiboQ-35">
          <mxGeometry x="190" width="90" height="20" as="geometry">
            <mxRectangle width="90" height="20" as="alternateBounds" />
          </mxGeometry>
        </mxCell>
        <mxCell id="ruvkpopMp-esO1WmiboQ-65" value="Training" style="text;html=1;align=center;verticalAlign=middle;resizable=0;points=[];autosize=1;strokeColor=none;fillColor=none;fontStyle=1;rounded=1;fontSize=15;fillOpacity=100;snapToPoint=1;" vertex="1" parent="1">
          <mxGeometry x="250" y="240" width="80" height="30" as="geometry" />
        </mxCell>
        <mxCell id="ruvkpopMp-esO1WmiboQ-108" style="edgeStyle=orthogonalEdgeStyle;rounded=1;hachureGap=4;orthogonalLoop=1;jettySize=auto;html=1;exitX=1;exitY=0.5;exitDx=0;exitDy=0;entryX=0;entryY=0.5;entryDx=0;entryDy=0;fontFamily=Architects Daughter;fontSource=https%3A%2F%2Ffonts.googleapis.com%2Fcss%3Ffamily%3DArchitects%2BDaughter;fontSize=16;strokeColor=default;arcSize=5;endArrow=ERmany;endFill=0;fillOpacity=100;snapToPoint=1;" edge="1" parent="1">
          <mxGeometry relative="1" as="geometry">
            <Array as="points">
              <mxPoint x="170" y="140" />
              <mxPoint x="170" y="160" />
            </Array>
            <mxPoint x="160" y="140.0000000000001" as="sourcePoint" />
            <mxPoint x="210" y="160" as="targetPoint" />
          </mxGeometry>
        </mxCell>
        <mxCell id="ruvkpopMp-esO1WmiboQ-109" value="&lt;span style=&quot;font-weight: normal;&quot;&gt;Training&lt;br&gt;&lt;/span&gt;" style="shape=table;startSize=30;container=1;collapsible=1;childLayout=tableLayout;fixedRows=1;rowLines=0;fontStyle=1;align=center;resizeLast=1;html=1;rounded=0;fillColor=#f0a30a;fontColor=#000000;strokeColor=#000000;comic=0;fillOpacity=100;snapToPoint=1;" vertex="1" parent="1">
          <mxGeometry x="470" y="280" width="300" height="170" as="geometry" />
        </mxCell>
        <mxCell id="ruvkpopMp-esO1WmiboQ-110" value="" style="shape=tableRow;horizontal=0;startSize=0;swimlaneHead=0;swimlaneBody=0;fillColor=#FFFFFF;collapsible=0;dropTarget=0;points=[[0,0.5,0,0,0],[1,0.5,0,0,0]];portConstraint=eastwest;top=0;left=0;right=0;bottom=0;rounded=1;fillOpacity=100;snapToPoint=1;" vertex="1" parent="ruvkpopMp-esO1WmiboQ-109">
          <mxGeometry y="30" width="300" height="20" as="geometry" />
        </mxCell>
        <mxCell id="ruvkpopMp-esO1WmiboQ-111" value="PK" style="shape=partialRectangle;connectable=0;fillColor=none;top=0;left=1;bottom=0;right=1;editable=1;overflow=hidden;whiteSpace=wrap;html=1;rounded=1;strokeColor=#000000;fillOpacity=100;snapToPoint=1;" vertex="1" parent="ruvkpopMp-esO1WmiboQ-110">
          <mxGeometry width="30" height="20" as="geometry">
            <mxRectangle width="30" height="20" as="alternateBounds" />
          </mxGeometry>
        </mxCell>
        <mxCell id="ruvkpopMp-esO1WmiboQ-112" value="user_id" style="shape=partialRectangle;connectable=0;fillColor=none;top=0;left=1;bottom=0;right=1;align=left;spacingLeft=6;overflow=hidden;whiteSpace=wrap;html=1;rounded=1;strokeColor=#000000;fillOpacity=100;snapToPoint=1;" vertex="1" parent="ruvkpopMp-esO1WmiboQ-110">
          <mxGeometry x="30" width="160" height="20" as="geometry">
            <mxRectangle width="160" height="20" as="alternateBounds" />
          </mxGeometry>
        </mxCell>
        <mxCell id="ruvkpopMp-esO1WmiboQ-113" value="Varchar(100)" style="shape=partialRectangle;connectable=0;fillColor=none;top=0;left=1;bottom=0;right=1;align=left;spacingLeft=6;overflow=hidden;whiteSpace=wrap;html=1;rounded=1;strokeColor=#000000;fillOpacity=100;snapToPoint=1;" vertex="1" parent="ruvkpopMp-esO1WmiboQ-110">
          <mxGeometry x="190" width="110" height="20" as="geometry">
            <mxRectangle width="110" height="20" as="alternateBounds" />
          </mxGeometry>
        </mxCell>
        <mxCell id="ruvkpopMp-esO1WmiboQ-114" style="shape=tableRow;horizontal=0;startSize=0;swimlaneHead=0;swimlaneBody=0;fillColor=#E8E8E8;collapsible=0;dropTarget=0;points=[[0,0.5],[1,0.5]];portConstraint=eastwest;top=0;left=0;right=0;bottom=0;rounded=1;fillStyle=auto;fillOpacity=100;snapToPoint=1;" vertex="1" parent="ruvkpopMp-esO1WmiboQ-109">
          <mxGeometry y="50" width="300" height="20" as="geometry" />
        </mxCell>
        <mxCell id="ruvkpopMp-esO1WmiboQ-115" value="" style="shape=partialRectangle;connectable=0;fillColor=#E8E8E8;top=0;left=1;bottom=0;right=1;editable=1;overflow=hidden;whiteSpace=wrap;html=1;labelBackgroundColor=none;strokeColor=#000000;fillOpacity=100;rounded=1;snapToPoint=1;" vertex="1" parent="ruvkpopMp-esO1WmiboQ-114">
          <mxGeometry width="30" height="20" as="geometry">
            <mxRectangle width="30" height="20" as="alternateBounds" />
          </mxGeometry>
        </mxCell>
        <mxCell id="ruvkpopMp-esO1WmiboQ-116" value="last_name" style="shape=partialRectangle;connectable=0;fillColor=#E8E8E8;top=0;left=1;bottom=0;right=1;align=left;spacingLeft=6;overflow=hidden;whiteSpace=wrap;html=1;labelBackgroundColor=none;strokeColor=#000000;fillOpacity=100;rounded=1;snapToPoint=1;" vertex="1" parent="ruvkpopMp-esO1WmiboQ-114">
          <mxGeometry x="30" width="160" height="20" as="geometry">
            <mxRectangle width="160" height="20" as="alternateBounds" />
          </mxGeometry>
        </mxCell>
        <mxCell id="ruvkpopMp-esO1WmiboQ-117" value="Varchar(100)" style="shape=partialRectangle;connectable=0;fillColor=#E8E8E8;top=0;left=1;bottom=0;right=1;align=left;spacingLeft=6;overflow=hidden;whiteSpace=wrap;html=1;labelBackgroundColor=none;strokeColor=#000000;fillOpacity=100;rounded=1;snapToPoint=1;" vertex="1" parent="ruvkpopMp-esO1WmiboQ-114">
          <mxGeometry x="190" width="110" height="20" as="geometry">
            <mxRectangle width="110" height="20" as="alternateBounds" />
          </mxGeometry>
        </mxCell>
        <mxCell id="ruvkpopMp-esO1WmiboQ-118" style="shape=tableRow;horizontal=0;startSize=0;swimlaneHead=0;swimlaneBody=0;fillColor=#E8E8E8;collapsible=0;dropTarget=0;points=[[0,0.5],[1,0.5]];portConstraint=eastwest;top=0;left=0;right=0;bottom=0;rounded=1;fillStyle=auto;fillOpacity=100;snapToPoint=1;" vertex="1" parent="ruvkpopMp-esO1WmiboQ-109">
          <mxGeometry y="70" width="300" height="20" as="geometry" />
        </mxCell>
        <mxCell id="ruvkpopMp-esO1WmiboQ-119" value="" style="shape=partialRectangle;connectable=0;fillColor=#FFFFFF;top=0;left=1;bottom=0;right=1;editable=1;overflow=hidden;whiteSpace=wrap;html=1;labelBackgroundColor=none;strokeColor=#000000;fillOpacity=100;rounded=1;snapToPoint=1;" vertex="1" parent="ruvkpopMp-esO1WmiboQ-118">
          <mxGeometry width="30" height="20" as="geometry">
            <mxRectangle width="30" height="20" as="alternateBounds" />
          </mxGeometry>
        </mxCell>
        <mxCell id="ruvkpopMp-esO1WmiboQ-120" value="first_name" style="shape=partialRectangle;connectable=0;fillColor=#FFFFFF;top=0;left=1;bottom=0;right=1;align=left;spacingLeft=6;overflow=hidden;whiteSpace=wrap;html=1;labelBackgroundColor=none;strokeColor=#000000;fillOpacity=100;rounded=1;snapToPoint=1;" vertex="1" parent="ruvkpopMp-esO1WmiboQ-118">
          <mxGeometry x="30" width="160" height="20" as="geometry">
            <mxRectangle width="160" height="20" as="alternateBounds" />
          </mxGeometry>
        </mxCell>
        <mxCell id="ruvkpopMp-esO1WmiboQ-121" value="Varchar(100)" style="shape=partialRectangle;connectable=0;fillColor=#FFFFFF;top=0;left=1;bottom=0;right=1;align=left;spacingLeft=6;overflow=hidden;whiteSpace=wrap;html=1;labelBackgroundColor=none;strokeColor=#000000;fillOpacity=100;rounded=1;snapToPoint=1;" vertex="1" parent="ruvkpopMp-esO1WmiboQ-118">
          <mxGeometry x="190" width="110" height="20" as="geometry">
            <mxRectangle width="110" height="20" as="alternateBounds" />
          </mxGeometry>
        </mxCell>
        <mxCell id="ruvkpopMp-esO1WmiboQ-122" style="shape=tableRow;horizontal=0;startSize=0;swimlaneHead=0;swimlaneBody=0;fillColor=#E8E8E8;collapsible=0;dropTarget=0;points=[[0,0.5],[1,0.5]];portConstraint=eastwest;top=0;left=0;right=0;bottom=0;rounded=1;fillStyle=auto;fillOpacity=100;snapToPoint=1;" vertex="1" parent="ruvkpopMp-esO1WmiboQ-109">
          <mxGeometry y="90" width="300" height="40" as="geometry" />
        </mxCell>
        <mxCell id="ruvkpopMp-esO1WmiboQ-123" value="" style="shape=partialRectangle;connectable=0;fillColor=#E8E8E8;top=0;left=1;bottom=0;right=1;editable=1;overflow=hidden;whiteSpace=wrap;html=1;labelBackgroundColor=none;strokeColor=#000000;fillOpacity=100;rounded=1;snapToPoint=1;" vertex="1" parent="ruvkpopMp-esO1WmiboQ-122">
          <mxGeometry width="30" height="40" as="geometry">
            <mxRectangle width="30" height="40" as="alternateBounds" />
          </mxGeometry>
        </mxCell>
        <mxCell id="ruvkpopMp-esO1WmiboQ-124" value="user_role" style="shape=partialRectangle;connectable=0;fillColor=#E8E8E8;top=0;left=1;bottom=0;right=1;align=left;spacingLeft=6;overflow=hidden;whiteSpace=wrap;html=1;labelBackgroundColor=none;strokeColor=#000000;fillOpacity=100;rounded=1;snapToPoint=1;" vertex="1" parent="ruvkpopMp-esO1WmiboQ-122">
          <mxGeometry x="30" width="160" height="40" as="geometry">
            <mxRectangle width="160" height="40" as="alternateBounds" />
          </mxGeometry>
        </mxCell>
        <mxCell id="ruvkpopMp-esO1WmiboQ-125" value="ENUM(&#39;admin&#39;, &#39;lead&#39;, &#39;member&#39;)" style="shape=partialRectangle;connectable=0;fillColor=#E8E8E8;top=0;left=1;bottom=0;right=1;align=left;spacingLeft=6;overflow=hidden;whiteSpace=wrap;html=1;labelBackgroundColor=none;strokeColor=#000000;fillOpacity=100;rounded=1;snapToPoint=1;" vertex="1" parent="ruvkpopMp-esO1WmiboQ-122">
          <mxGeometry x="190" width="110" height="40" as="geometry">
            <mxRectangle width="110" height="40" as="alternateBounds" />
          </mxGeometry>
        </mxCell>
        <mxCell id="ruvkpopMp-esO1WmiboQ-126" style="shape=tableRow;horizontal=0;startSize=0;swimlaneHead=0;swimlaneBody=0;fillColor=none;collapsible=0;dropTarget=0;points=[[0,0.5],[1,0.5]];portConstraint=eastwest;top=0;left=0;right=0;bottom=0;rounded=1;fillOpacity=100;snapToPoint=1;" vertex="1" parent="ruvkpopMp-esO1WmiboQ-109">
          <mxGeometry y="130" width="300" height="20" as="geometry" />
        </mxCell>
        <mxCell id="ruvkpopMp-esO1WmiboQ-127" value="" style="shape=partialRectangle;connectable=0;fillColor=#FFFFFF;top=0;left=1;bottom=0;right=1;editable=1;overflow=hidden;whiteSpace=wrap;html=1;labelBackgroundColor=none;rounded=1;strokeColor=#000000;fillOpacity=100;snapToPoint=1;" vertex="1" parent="ruvkpopMp-esO1WmiboQ-126">
          <mxGeometry width="30" height="20" as="geometry">
            <mxRectangle width="30" height="20" as="alternateBounds" />
          </mxGeometry>
        </mxCell>
        <mxCell id="ruvkpopMp-esO1WmiboQ-128" value="email" style="shape=partialRectangle;connectable=0;fillColor=#FFFFFF;top=0;left=1;bottom=0;right=1;align=left;spacingLeft=6;overflow=hidden;whiteSpace=wrap;html=1;labelBackgroundColor=none;rounded=1;strokeColor=#000000;fillOpacity=100;snapToPoint=1;" vertex="1" parent="ruvkpopMp-esO1WmiboQ-126">
          <mxGeometry x="30" width="160" height="20" as="geometry">
            <mxRectangle width="160" height="20" as="alternateBounds" />
          </mxGeometry>
        </mxCell>
        <mxCell id="ruvkpopMp-esO1WmiboQ-129" value="Varchar(100)" style="shape=partialRectangle;connectable=0;fillColor=#FFFFFF;top=0;left=1;bottom=0;right=1;align=left;spacingLeft=6;overflow=hidden;whiteSpace=wrap;html=1;labelBackgroundColor=none;rounded=1;strokeColor=#000000;fillOpacity=100;snapToPoint=1;" vertex="1" parent="ruvkpopMp-esO1WmiboQ-126">
          <mxGeometry x="190" width="110" height="20" as="geometry">
            <mxRectangle width="110" height="20" as="alternateBounds" />
          </mxGeometry>
        </mxCell>
        <mxCell id="ruvkpopMp-esO1WmiboQ-130" style="shape=tableRow;horizontal=0;startSize=0;swimlaneHead=0;swimlaneBody=0;fillColor=none;collapsible=0;dropTarget=0;points=[[0,0.5],[1,0.5]];portConstraint=eastwest;top=0;left=0;right=0;bottom=0;rounded=1;fillOpacity=100;snapToPoint=1;" vertex="1" parent="ruvkpopMp-esO1WmiboQ-109">
          <mxGeometry y="150" width="300" height="20" as="geometry" />
        </mxCell>
        <mxCell id="ruvkpopMp-esO1WmiboQ-131" value="" style="shape=partialRectangle;connectable=0;fillColor=#E8E8E8;top=0;left=1;bottom=0;right=1;editable=1;overflow=hidden;whiteSpace=wrap;html=1;fillOpacity=100;perimeter=rectanglePerimeter;snapToPoint=1;fixDash=0;part=0;metaEdit=0;backgroundOutline=0;strokeOpacity=100;noLabel=0;labelPadding=0;labelBackgroundColor=none;rounded=1;fillStyle=auto;strokeColor=#000000;" vertex="1" parent="ruvkpopMp-esO1WmiboQ-130">
          <mxGeometry width="30" height="20" as="geometry">
            <mxRectangle width="30" height="20" as="alternateBounds" />
          </mxGeometry>
        </mxCell>
        <mxCell id="ruvkpopMp-esO1WmiboQ-132" value="password" style="shape=partialRectangle;connectable=0;fillColor=#E8E8E8;top=0;left=1;bottom=0;right=1;align=left;spacingLeft=6;overflow=hidden;whiteSpace=wrap;html=1;fillOpacity=100;perimeter=rectanglePerimeter;snapToPoint=1;fixDash=0;part=0;metaEdit=0;backgroundOutline=0;strokeOpacity=100;noLabel=0;labelPadding=0;labelBackgroundColor=none;rounded=1;fillStyle=auto;strokeColor=#000000;" vertex="1" parent="ruvkpopMp-esO1WmiboQ-130">
          <mxGeometry x="30" width="160" height="20" as="geometry">
            <mxRectangle width="160" height="20" as="alternateBounds" />
          </mxGeometry>
        </mxCell>
        <mxCell id="ruvkpopMp-esO1WmiboQ-133" value="Varchar(100)" style="shape=partialRectangle;connectable=0;fillColor=#E8E8E8;top=0;left=1;bottom=0;right=1;align=left;spacingLeft=6;overflow=hidden;whiteSpace=wrap;html=1;fillOpacity=100;perimeter=rectanglePerimeter;snapToPoint=1;fixDash=0;part=0;metaEdit=0;backgroundOutline=0;strokeOpacity=100;noLabel=0;labelPadding=0;labelBackgroundColor=none;rounded=1;fillStyle=auto;strokeColor=#000000;" vertex="1" parent="ruvkpopMp-esO1WmiboQ-130">
          <mxGeometry x="190" width="110" height="20" as="geometry">
            <mxRectangle width="110" height="20" as="alternateBounds" />
          </mxGeometry>
        </mxCell>
        <mxCell id="ruvkpopMp-esO1WmiboQ-134" value="User" style="text;html=1;align=center;verticalAlign=middle;resizable=0;points=[];autosize=1;strokeColor=none;fillColor=none;fontStyle=1;rounded=1;fontSize=15;fillOpacity=100;snapToPoint=1;" vertex="1" parent="1">
          <mxGeometry x="590" y="240" width="60" height="30" as="geometry" />
        </mxCell>
      </root>
    </mxGraphModel>
  </diagram>
</mxfile>
